<svg width="86" height="85" viewBox="0 0 86 85" fill="none" xmlns="http://www.w3.org/2000/svg">
<path d="M42.8125 16.5625C19.2125 16.5625 0 28.2 0 42.5C0 56.8 19.2 68.4375 42.8125 68.4375C66.425 68.4375 85.625 56.8 85.625 42.5C85.625 28.2 66.425 16.5625 42.8125 16.5625ZM28.7875 42.5C28.7875 51.3 31.3125 59.05 35.125 63.5625C36.1125 64.7375 35.0375 66.5 33.55 66.1625C20.1625 63.125 10.375 53.6625 10.375 42.5C10.375 31.3375 20.1625 21.8875 33.55 18.8375C35.05 18.5 36.125 20.2625 35.125 21.4375C31.3125 25.9375 28.7875 33.7 28.7875 42.5ZM42.8125 18.5375C49.8625 18.5375 55.5875 29.2875 55.5875 42.5C55.5875 55.7125 49.85 66.4625 42.8125 66.4625C35.775 66.4625 30.0375 55.7125 30.0375 42.5C30.0375 29.2875 35.775 18.5375 42.8125 18.5375ZM56.8375 42.5C56.8375 33.7 54.3125 25.95 50.5 21.4375C49.5125 20.2625 50.5875 18.5 52.075 18.8375C65.4625 21.875 75.25 31.3375 75.25 42.5C75.25 53.6625 65.4625 63.1125 52.075 66.1625C50.575 66.5 49.5 64.7375 50.5 63.5625C54.3125 59.0625 56.8375 51.3 56.8375 42.5ZM1.25 42.5C1.25 35.775 5.8 29.6625 13.175 25.2125C14.775 24.2375 16.4625 26.275 15.2 27.6625C11.375 31.8625 9.125 36.9875 9.125 42.5C9.125 48.0125 11.375 53.125 15.2 57.3375C16.4625 58.725 14.7875 60.7625 13.175 59.7875C5.8 55.325 1.25 49.225 1.25 42.5ZM72.45 59.8C70.85 60.775 69.1625 58.7375 70.425 57.35C74.25 53.1375 76.5 48.025 76.5 42.5125C76.5 37 74.25 31.875 70.425 27.675C69.1625 26.2875 70.8375 24.25 72.45 25.225C79.825 29.6875 84.375 35.7875 84.375 42.525C84.375 49.2625 79.825 55.3625 72.45 59.825V59.8Z" fill="white"/>
<path d="M42.8124 0L44.4374 37.325C44.5249 39.25 46.0624 40.7875 47.9874 40.875L85.3124 42.5L47.9874 44.125C46.0624 44.2125 44.5249 45.75 44.4374 47.675L42.8124 85L41.1874 47.675C41.0999 45.75 39.5624 44.2125 37.6374 44.125L0.312439 42.5L37.6374 40.875C39.5624 40.7875 41.0999 39.25 41.1874 37.325L42.8124 0Z" fill="white"/>
</svg>
